<svg width="50" height="50" viewBox="0 0 50 50" fill="none" xmlns="http://www.w3.org/2000/svg" role="img" aria-labelledby="js-logo-title js-logo-description">
<title id="js-logo-title">JS Logo Square</title>
<desc id="js-logo-description">A yellow square with the letters JS inside in white</desc>
<path d="M3.125 3.125H46.875V46.875H3.125V3.125Z" fill="#F5DE19"/>
<path d="M32.5141 37.3047C32.8874 38.0614 33.4667 38.6974 34.1853 39.1396C34.904 39.5819 35.7328 39.8124 36.5766 39.8047C38.2797 39.8047 39.3687 38.9531 39.3687 37.7734C39.3687 36.3672 38.25 35.8641 36.375 35.0437L35.3469 34.6031C32.3781 33.3391 30.4094 31.7562 30.4094 28.4094C30.4094 25.3266 32.7531 22.9781 36.4297 22.9781C37.6198 22.8924 38.8089 23.1588 39.8486 23.7443C40.8883 24.3297 41.7327 25.2082 42.2765 26.2703L39.0625 28.325C38.853 27.7984 38.4884 27.348 38.0171 27.0332C37.5459 26.7185 36.9901 26.5543 36.4234 26.5625C36.1762 26.5377 35.9265 26.5648 35.6903 26.6418C35.454 26.7189 35.2364 26.8444 35.0514 27.0102C34.8663 27.176 34.7178 27.3785 34.6153 27.6049C34.5129 27.8313 34.4587 28.0765 34.4562 28.325C34.4562 29.5578 35.2203 30.0578 36.9844 30.825L38.0125 31.2656C41.5062 32.7641 43.4812 34.2906 43.4812 37.7234C43.4812 41.425 40.5734 43.4531 36.6687 43.4531C35.1475 43.5491 33.6309 43.2032 32.3017 42.4572C30.9724 41.7113 29.8872 40.5969 29.1766 39.2484L32.5141 37.3047ZM17.9906 37.6609C18.6359 38.8062 19.2234 39.775 20.6359 39.775C21.9859 39.775 22.8391 39.2469 22.8391 37.1922V23.2125H26.95V37.2469C26.95 41.5031 24.45 43.4406 20.8109 43.4406C19.5246 43.5109 18.2471 43.1904 17.1464 42.5211C16.0456 41.8517 15.1732 40.865 14.6437 39.6906L17.9906 37.6609Z" fill="black"/>
</svg>
