<?xml version="1.0" encoding="UTF-8"?>
<svg xmlns="http://www.w3.org/2000/svg" xmlns:xlink="http://www.w3.org/1999/xlink" width="50px" height="50px" viewBox="0 0 50 50" version="1.1">
<g id="surface1">
<path style=" stroke:none;fill-rule:nonzero;fill:rgb(0%,0%,0%);fill-opacity:1;" d="M 30.242188 34.101562 L 30.242188 22.550781 L 20.726562 28.382812 L 17.371094 22.539062 L 27.300781 17.105469 L 17.371094 11.589844 L 20.742188 5.851562 L 30.242188 11.65625 L 30.242188 0.0585938 L 37.019531 0.0585938 L 37.019531 11.65625 L 46.605469 5.851562 L 50 11.589844 L 40.027344 17.105469 L 50 22.539062 L 46.59375 28.40625 L 37.019531 22.550781 L 37.019531 34.101562 Z M 14.175781 42.851562 C 14.175781 37.414062 8.25 34 3.535156 36.714844 C -1.179688 39.433594 -1.179688 46.265625 3.535156 48.984375 C 8.25 51.703125 14.175781 48.289062 14.175781 42.851562 Z M 14.175781 42.851562 "/>
</g>
</svg>
